<?xml version="1.0" standalone="no"?>
<!DOCTYPE svg PUBLIC "-//W3C//DTD SVG 1.1//EN"
"http://www.w3.org/Graphics/SVG/1.1/DTD/svg11.dtd">

<svg width="451" height="517" view_box="0 0 451 517"
xmlns="http://www.w3.org/2000/svg"
xmlns:link="http://www.w3.org/1999/xlink">\n\n<desc>Généré par Mocodo 2.3.7 le Sat, 24 Apr 2021 10:08:47</desc>

<rect id="frame" x="0" y="0" width="451" height="517" fill="#f5f5f5" stroke="none" stroke-width="0"/>

<!-- Association POSSEDE -->
<line x1="334" y1="170" x2="334" y2="60" stroke="#bf812d" stroke-width="2"/>
<text x="339.0" y="128" fill="#01665e" font-family="Verdana" font-size="12">1,N</text>
<line x1="211" y1="60" x2="334" y2="60" stroke="#bf812d" stroke-width="2"/>
<text x="270" y="77.0" fill="#01665e" font-family="Verdana" font-size="12">1,1</text>
<g id="association-POSSEDE">
	<path d="M 357 35 a 14 14 90 0 1 14 14 V 60 h -74 V 49 a 14 14 90 0 1 14 -14" fill="#dfc27d" stroke="#dfc27d" stroke-width="0"/>
	<path d="M 371 60.0 v 11 a 14 14 90 0 1 -14 14 H 311 a 14 14 90 0 1 -14 -14 V 60.0 H 74" fill="#f6e8c3" stroke="#f6e8c3" stroke-width="0"/>
	<rect x="297" y="35" width="74" height="50" fill="none" rx="14" stroke="#bf812d" stroke-width="2"/>
	<line x1="297" y1="60" x2="371" y2="60" stroke="#bf812d" stroke-width="1"/>
	<text x="304" y="52.7" fill="#000000" font-family="Verdana" font-size="12">POSSEDE</text>
</g>

<!-- Association CRÉE -->
<line x1="211" y1="60" x2="211" y2="170" stroke="#bf812d" stroke-width="2"/>
<text x="216.0" y="128" fill="#01665e" font-family="Verdana" font-size="12">1,1</text>
<line x1="211" y1="305" x2="211" y2="170" stroke="#bf812d" stroke-width="2"/>
<text x="216.0" y="221" fill="#01665e" font-family="Verdana" font-size="12">1,N</text>
<g id="association-CRÉE">
	<path d="M 221 145 a 14 14 90 0 1 14 14 V 170 h -48 V 159 a 14 14 90 0 1 14 -14" fill="#dfc27d" stroke="#dfc27d" stroke-width="0"/>
	<path d="M 235 170.0 v 11 a 14 14 90 0 1 -14 14 H 201 a 14 14 90 0 1 -14 -14 V 170.0 H 48" fill="#f6e8c3" stroke="#f6e8c3" stroke-width="0"/>
	<rect x="187" y="145" width="48" height="50" fill="none" rx="14" stroke="#bf812d" stroke-width="2"/>
	<line x1="187" y1="170" x2="235" y2="170" stroke="#bf812d" stroke-width="1"/>
	<text x="194" y="162.7" fill="#000000" font-family="Verdana" font-size="12">CRÉE</text>
</g>

<!-- Association ENREGISTRE -->
<line x1="211" y1="305" x2="79" y2="305" stroke="#bf812d" stroke-width="2"/>
<text x="150" y="322.0" fill="#01665e" font-family="Verdana" font-size="12">1,N</text>
<line x1="79" y1="170" x2="79" y2="305" stroke="#bf812d" stroke-width="2"/>
<text x="84.0" y="221" fill="#01665e" font-family="Verdana" font-size="12">1,1</text>
<g id="association-ENREGISTRE">
	<path d="M 112 280 a 14 14 90 0 1 14 14 V 305 h -94 V 294 a 14 14 90 0 1 14 -14" fill="#dfc27d" stroke="#dfc27d" stroke-width="0"/>
	<path d="M 126 305.0 v 11 a 14 14 90 0 1 -14 14 H 46 a 14 14 90 0 1 -14 -14 V 305.0 H 94" fill="#f6e8c3" stroke="#f6e8c3" stroke-width="0"/>
	<rect x="32" y="280" width="94" height="50" fill="none" rx="14" stroke="#bf812d" stroke-width="2"/>
	<line x1="32" y1="305" x2="126" y2="305" stroke="#bf812d" stroke-width="1"/>
	<text x="39" y="297.7" fill="#000000" font-family="Verdana" font-size="12">ENREGISTRE</text>
</g>

<!-- Association RÉFÉRENCIE -->
<line x1="211" y1="60" x2="79" y2="60" stroke="#bf812d" stroke-width="2"/>
<text x="130" y="77.0" fill="#01665e" font-family="Verdana" font-size="12">1,N</text>
<line x1="79" y1="170" x2="79" y2="60" stroke="#bf812d" stroke-width="2"/>
<text x="84.0" y="128" fill="#01665e" font-family="Verdana" font-size="12">1,1</text>
<g id="association-RÉFÉRENCIE">
	<path d="M 111 35 a 14 14 90 0 1 14 14 V 60 h -92 V 49 a 14 14 90 0 1 14 -14" fill="#dfc27d" stroke="#dfc27d" stroke-width="0"/>
	<path d="M 125 60.0 v 11 a 14 14 90 0 1 -14 14 H 47 a 14 14 90 0 1 -14 -14 V 60.0 H 92" fill="#f6e8c3" stroke="#f6e8c3" stroke-width="0"/>
	<rect x="33" y="35" width="92" height="50" fill="none" rx="14" stroke="#bf812d" stroke-width="2"/>
	<line x1="33" y1="60" x2="125" y2="60" stroke="#bf812d" stroke-width="1"/>
	<text x="40" y="52.7" fill="#000000" font-family="Verdana" font-size="12">RÉFÉRENCIE</text>
</g>

<!-- Association DROITS -->
<line x1="211" y1="305" x2="334" y2="305" stroke="#bf812d" stroke-width="2"/>
<text x="250" y="322.0" fill="#01665e" font-family="Verdana" font-size="12">1,1</text>
<line x1="420" y1="305" x2="334" y2="305" stroke="#bf812d" stroke-width="2"/>
<text x="371" y="322.0" fill="#01665e" font-family="Verdana" font-size="12">1,N</text>
<g id="association-DROITS">
	<path d="M 352 280 a 14 14 90 0 1 14 14 V 305 h -64 V 294 a 14 14 90 0 1 14 -14" fill="#dfc27d" stroke="#dfc27d" stroke-width="0"/>
	<path d="M 366 305.0 v 11 a 14 14 90 0 1 -14 14 H 316 a 14 14 90 0 1 -14 -14 V 305.0 H 64" fill="#f6e8c3" stroke="#f6e8c3" stroke-width="0"/>
	<rect x="302" y="280" width="64" height="50" fill="none" rx="14" stroke="#bf812d" stroke-width="2"/>
	<line x1="302" y1="305" x2="366" y2="305" stroke="#bf812d" stroke-width="1"/>
	<text x="309" y="297.7" fill="#000000" font-family="Verdana" font-size="12">DROITS</text>
</g>

<!-- Entity CATEGORIE -->
<g id="entity-CATEGORIE">
	<g id="frame-CATEGORIE">
		<rect x="293" y="136" width="82" height="25" fill="#80cdc1" stroke="#80cdc1" stroke-width="0"/>
		<rect x="293" y="161.0" width="82" height="43" fill="#c7eae5" stroke="#c7eae5" stroke-width="0"/>
		<rect x="293" y="136" width="82" height="68" fill="none" stroke="#35978f" stroke-width="2"/>
		<line x1="293" y1="161" x2="375" y2="161" stroke="#35978f" stroke-width="1"/>
	</g>
	<text x="298" y="153.7" fill="#000000" font-family="Verdana" font-size="12">CATEGORIE</text>
	<text x="298" y="178.8" fill="#000000" font-family="Verdana" font-size="12">id</text>
	<line x1="298" y1="181" x2="310" y2="181" stroke="#000000" stroke-width="1"/>
	<text x="298" y="195.8" fill="#000000" font-family="Verdana" font-size="12">nom</text>
</g>

<!-- Entity ENTRAINEMENT -->
<g id="entity-ENTRAINEMENT">
	<g id="frame-ENTRAINEMENT">
		<rect x="157" y="9" width="108" height="25" fill="#80cdc1" stroke="#80cdc1" stroke-width="0"/>
		<rect x="157" y="34.0" width="108" height="77" fill="#c7eae5" stroke="#c7eae5" stroke-width="0"/>
		<rect x="157" y="9" width="108" height="102" fill="none" stroke="#35978f" stroke-width="2"/>
		<line x1="157" y1="34" x2="265" y2="34" stroke="#35978f" stroke-width="1"/>
	</g>
	<text x="162" y="26.7" fill="#000000" font-family="Verdana" font-size="12">ENTRAINEMENT</text>
	<text x="162" y="51.7" fill="#000000" font-family="Verdana" font-size="12">id</text>
	<line x1="162" y1="54" x2="174" y2="54" stroke="#000000" stroke-width="1"/>
	<text x="162" y="68.8" fill="#000000" font-family="Verdana" font-size="12">nom</text>
	<text x="162" y="85.8" fill="#000000" font-family="Verdana" font-size="12">exo_list</text>
	<text x="162" y="102.8" fill="#000000" font-family="Verdana" font-size="12">is_benchmark</text>
</g>

<!-- Entity EXERCICE -->
<g id="entity-EXERCICE">
	<g id="frame-EXERCICE">
		<rect x="167" y="406" width="88" height="25" fill="#80cdc1" stroke="#80cdc1" stroke-width="0"/>
		<rect x="167" y="431.0" width="88" height="77" fill="#c7eae5" stroke="#c7eae5" stroke-width="0"/>
		<rect x="167" y="406" width="88" height="102" fill="none" stroke="#35978f" stroke-width="2"/>
		<line x1="167" y1="431" x2="255" y2="431" stroke="#35978f" stroke-width="1"/>
	</g>
	<text x="180" y="423.7" fill="#000000" font-family="Verdana" font-size="12">EXERCICE</text>
	<text x="172" y="448.7" fill="#000000" font-family="Verdana" font-size="12">id</text>
	<line x1="172" y1="451" x2="184" y2="451" stroke="#000000" stroke-width="1"/>
	<text x="172" y="465.8" fill="#000000" font-family="Verdana" font-size="12">nom</text>
	<text x="172" y="482.8" fill="#000000" font-family="Verdana" font-size="12">description</text>
	<text x="172" y="499.8" fill="#000000" font-family="Verdana" font-size="12">isBenchmark</text>
</g>

<!-- Entity ROLE -->
<g id="entity-ROLE">
	<g id="frame-ROLE">
		<rect x="398" y="271" width="44" height="25" fill="#80cdc1" stroke="#80cdc1" stroke-width="0"/>
		<rect x="398" y="296.0" width="44" height="43" fill="#c7eae5" stroke="#c7eae5" stroke-width="0"/>
		<rect x="398" y="271" width="44" height="68" fill="none" stroke="#35978f" stroke-width="2"/>
		<line x1="398" y1="296" x2="442" y2="296" stroke="#35978f" stroke-width="1"/>
	</g>
	<text x="403" y="288.7" fill="#000000" font-family="Verdana" font-size="12">ROLE</text>
	<text x="403" y="313.8" fill="#000000" font-family="Verdana" font-size="12">id</text>
	<line x1="403" y1="316" x2="415" y2="316" stroke="#000000" stroke-width="1"/>
	<text x="403" y="330.8" fill="#000000" font-family="Verdana" font-size="12">nom</text>
</g>

<!-- Entity USER -->
<g id="entity-USER">
	<g id="frame-USER">
		<rect x="177" y="229" width="68" height="25" fill="#80cdc1" stroke="#80cdc1" stroke-width="0"/>
		<rect x="177" y="254.0" width="68" height="127" fill="#c7eae5" stroke="#c7eae5" stroke-width="0"/>
		<rect x="177" y="229" width="68" height="152" fill="none" stroke="#35978f" stroke-width="2"/>
		<line x1="177" y1="254" x2="245" y2="254" stroke="#35978f" stroke-width="1"/>
	</g>
	<text x="194" y="246.7" fill="#000000" font-family="Verdana" font-size="12">USER</text>
	<text x="182" y="271.7" fill="#000000" font-family="Verdana" font-size="12">id</text>
	<line x1="182" y1="274" x2="194" y2="274" stroke="#000000" stroke-width="1"/>
	<text x="182" y="288.7" fill="#000000" font-family="Verdana" font-size="12">pseudo</text>
	<text x="182" y="305.8" fill="#000000" font-family="Verdana" font-size="12">prenom</text>
	<text x="182" y="322.8" fill="#000000" font-family="Verdana" font-size="12">nom</text>
	<text x="182" y="339.8" fill="#000000" font-family="Verdana" font-size="12">email</text>
	<text x="182" y="356.8" fill="#000000" font-family="Verdana" font-size="12">password</text>
	<text x="182" y="373.8" fill="#000000" font-family="Verdana" font-size="12">status</text>
</g>

<!-- Entity ENTRAINEMENT-FAIT -->
<g id="entity-ENTRAINEMENT-FAIT">
	<g id="frame-ENTRAINEMENT-FAIT">
		<rect x="9" y="136" width="140" height="25" fill="#80cdc1" stroke="#80cdc1" stroke-width="0"/>
		<rect x="9" y="161.0" width="140" height="43" fill="#c7eae5" stroke="#c7eae5" stroke-width="0"/>
		<rect x="9" y="136" width="140" height="68" fill="none" stroke="#35978f" stroke-width="2"/>
		<line x1="9" y1="161" x2="149" y2="161" stroke="#35978f" stroke-width="1"/>
	</g>
	<text x="14" y="153.7" fill="#000000" font-family="Verdana" font-size="12">ENTRAINEMENT-FAIT</text>
	<text x="14" y="178.8" fill="#000000" font-family="Verdana" font-size="12">id</text>
	<line x1="14" y1="181" x2="26" y2="181" stroke="#000000" stroke-width="1"/>
	<text x="14" y="195.8" fill="#000000" font-family="Verdana" font-size="12">exo_list</text>
</g>
</svg>